<?xml version="1.0" encoding="UTF-8"?>
<svg version="1.1" xmlns="http://www.w3.org/2000/svg" width="1920" height="1080">
<path d="M0 0 C42.57 0 85.14 0 129 0 C129 53.79 129 107.58 129 163 C136.92 163 144.84 163 153 163 C153 150.79 153 138.58 153 126 C226.26 126 299.52 126 375 126 C375 135.9 375 145.8 375 156 C389.52 156 404.04 156 419 156 C419 195.6 419 235.2 419 276 C413.06 276 407.12 276 401 276 C401 285.24 401 294.48 401 304 C415.85 304 430.7 304 446 304 C446 363.07 446 422.14 446 483 C429.17 483 412.34 483 395 483 C395 492.24 395 501.48 395 511 C304.58 511 214.16 511 121 511 C121 491.53 121 472.06 121 452 C108.79 452 96.58 452 84 452 C84 462.23 84 472.46 84 483 C7.44 483 -69.12 483 -148 483 C-148 470.46 -148 457.92 -148 445 C-164.17 445 -180.34 445 -197 445 C-197 438.07 -197 431.14 -197 424 C-239.9 424 -282.8 424 -327 424 C-327 373.18 -327 322.36 -327 270 C-343.17 270 -359.34 270 -376 270 C-376 305.97 -376 341.94 -376 379 C-389.2 379 -402.4 379 -416 379 C-416 384.28 -416 389.56 -416 395 C-455.6 395 -495.2 395 -536 395 C-536 413.81 -536 432.62 -536 452 C-600.68 452 -665.36 452 -732 452 C-732 477.41 -732 502.82 -732 529 C-747.51 529 -763.02 529 -779 529 C-779 535.93 -779 542.86 -779 550 C-851.27 550 -923.54 550 -998 550 C-998 543.07 -998 536.14 -998 529 C-1017.47 529 -1036.94 529 -1057 529 C-1057 384.79 -1057 240.58 -1057 92 C-1045.45 92 -1033.9 92 -1022 92 C-1022 83.09 -1022 74.18 -1022 65 C-974.48 65 -926.96 65 -878 65 C-878 103.61 -878 142.22 -878 182 C-884.93 182 -891.86 182 -899 182 C-899 248.33 -899 314.66 -899 383 C-877.55 383 -856.1 383 -834 383 C-834.16298584 377.27914063 -834.32597168 371.55828125 -834.49389648 365.6640625 C-835.03893026 344.84120814 -835.13378484 324.03165241 -835.10139394 303.20279312 C-835.09497832 298.34898283 -835.09454268 293.4951713 -835.09336853 288.64135742 C-835.09030724 279.52307198 -835.08216703 270.40479907 -835.07201904 261.28651905 C-835.06069244 250.87466674 -835.05530655 240.4628137 -835.05032361 230.05095673 C-835.03997758 208.70062934 -835.02170019 187.35031907 -835 166 C-821.47 166 -807.94 166 -794 166 C-794 129.04 -794 92.08 -794 54 C-700.94 54 -607.88 54 -512 54 C-512 64.23 -512 74.46 -512 85 C-480.32 85 -448.64 85 -416 85 C-416 88.3 -416 91.6 -416 95 C-407.09 95 -398.18 95 -389 95 C-389 103.25 -389 111.5 -389 120 C-327.95 120 -266.9 120 -204 120 C-204 137.16 -204 154.32 -204 172 C-197.07 172 -190.14 172 -183 172 C-183 179.92 -183 187.84 -183 196 C-137.79 196 -92.58 196 -46 196 C-46 182.47 -46 168.94 -46 155 C-30.82 155 -15.64 155 0 155 C0 103.85 0 52.7 0 0 Z " fill="#008000" transform="translate(1293,242)"/>
<path d="M0 0 C67.65 0 135.3 0 205 0 C205 12.21 205 24.42 205 37 C212.26 37 219.52 37 227 37 C227 122.8 227 208.6 227 297 C215.45 297 203.9 297 192 297 C192 309.21 192 321.42 192 334 C130.95 334 69.9 334 7 334 C7 324.1 7 314.2 7 304 C-8.51 304 -24.02 304 -40 304 C-40 238.66 -40 173.32 -40 106 C22.04 106 84.08 106 148 106 C148 94.12 148 82.24 148 70 C99.16 70 50.32 70 0 70 C0 46.9 0 23.8 0 0 Z " fill="#FDFE00" transform="translate(529,313)"/>
<path d="M0 0 C26.07 0 52.14 0 79 0 C79 127.05 79 254.1 79 385 C67.45 385 55.9 385 44 385 C44 397.21 44 409.42 44 422 C-17.05 422 -78.1 422 -141 422 C-141 412.1 -141 402.2 -141 392 C-156.18 392 -171.36 392 -187 392 C-187.13351582 376.50257687 -187.26439808 361.00513665 -187.39115143 345.50765705 C-187.45015387 338.30269827 -187.51009533 331.09775026 -187.57275391 323.89282227 C-187.62772654 317.57134041 -187.6804248 311.24984327 -187.73096704 304.9283244 C-187.75749024 301.61901784 -187.78509704 298.30973226 -187.81480408 295.00045204 C-188.11229605 261.66684026 -188 228.3360844 -188 195 C-140.48 195 -92.96 195 -44 195 C-44 180.15 -44 165.3 -44 150 C-29.48 150 -14.96 150 0 150 C0 100.5 0 51 0 0 Z " fill="#FEFE00" transform="translate(1318,261)"/>
<path d="M0 0 C54.45 0 108.9 0 165 0 C165 8.25 165 16.5 165 25 C178.53 25 192.06 25 206 25 C206 53.38 206 81.76 206 111 C181.91 111 157.82 111 133 111 C133 100.44 133 89.88 133 79 C110.56 79 88.12 79 65 79 C65 97.15 65 115.3 65 134 C106.58 134 148.16 134 191 134 C191 145.22 191 156.44 191 168 C204.2 168 217.4 168 231 168 C231 207.6 231 247.2 231 288 C217.8 288 204.6 288 191 288 C191 301.2 191 314.4 191 328 C119.72 328 48.44 328 -25 328 C-25 301.93 -25 275.86 -25 249 C29.78 249 84.56 249 141 249 C141 237.12 141 225.24 141 213 C86.22 213 31.44 213 -25 213 C-25 154.59 -25 96.18 -25 36 C-16.75 36 -8.5 36 0 36 C0 24.12 0 12.24 0 0 Z " fill="#FEFE00" transform="translate(1481,391)"/>
<path d="M0 0 C29.04 0 58.08 0 88 0 C88 25.74 88 51.48 88 78 C83.71 78 79.42 78 75 78 C75 164.79 75 251.58 75 341 C134.73 341 194.46 341 256 341 C256 366.74 256 392.48 256 419 C181.75 419 107.5 419 31 419 C31 406.13 31 393.26 31 380 C13.51 380 -3.98 380 -22 380 C-22 268.79 -22 157.58 -22 43 C-14.74 43 -7.48 43 0 43 C0 28.81 0 14.62 0 0 Z " fill="#FEFE00" transform="translate(289,324)"/>
<path d="M0 0 C26.07 0 52.14 0 79 0 C79 11.22 79 22.44 79 34 C127.18 34 175.36 34 225 34 C225 42.25 225 50.5 225 59 C236.22 59 247.44 59 259 59 C259 126.32 259 193.64 259 263 C232.93 263 206.86 263 180 263 C180 210.2 180 157.4 180 103 C146.67 103 113.34 103 79 103 C79 154.81 79 206.62 79 260 C52.93 260 26.86 260 0 260 C0 174.2 0 88.4 0 0 Z " fill="#FEFE00" transform="translate(812,349)"/>
<path d="M0 0 C0.86625 0.4125 1.7325 0.825 2.625 1.25 C6.64467676 4.21186708 8.43007912 8.29023736 10 13 C10.09617307 15.51181429 10.13934762 17.98916622 10.125 20.5 C10.12886719 21.17675781 10.13273437 21.85351562 10.13671875 22.55078125 C10.13062416 25.64073767 9.9844023 28.04679311 9 31 C8.90729714 32.45598022 8.87002075 33.91608005 8.875 35.375 C8.87242187 36.12523437 8.86984375 36.87546875 8.8671875 37.6484375 C8.94005298 40.01168422 8.94005298 40.01168422 9.49822998 42.32406616 C10.00017186 45.00091652 10.14001107 47.44587981 10.16113281 50.16650391 C10.17074036 51.17170074 10.1803479 52.17689758 10.19024658 53.21255493 C10.1966214 54.82823868 10.1966214 54.82823868 10.203125 56.4765625 C10.20882507 57.59759369 10.21452515 58.71862488 10.22039795 59.87362671 C10.22983522 62.24565695 10.23637687 64.61770022 10.24023438 66.98974609 C10.24990882 70.591058 10.28093236 74.19179142 10.3125 77.79296875 C10.31903384 80.1041633 10.32428281 82.41536191 10.328125 84.7265625 C10.3404718 85.79153961 10.3528186 86.85651672 10.36553955 87.95376587 C10.34205823 95.96664965 9.70655526 104.81230992 4.8125 111.5 C-1.99078266 117.54736236 -9.5081577 117.63546515 -18.21484375 117.375 C-23.07649401 116.89335044 -25.79604579 115.36950146 -30 113 C-33.58107877 112.9311331 -36.09268811 113.52048801 -39.26171875 115.1953125 C-49.97508314 120.6692943 -61.2510822 119.46317301 -73 119 C-73 118.34 -73 117.68 -73 117 C-74.093125 116.95875 -75.18625 116.9175 -76.3125 116.875 C-81.38588552 116.29724791 -85.12270308 113.85781022 -89.38671875 111.1796875 C-92.57329757 109.74120199 -93.72328359 109.88591642 -97 111 C-99.00481953 111.92550888 -100.98353408 112.90896453 -102.9375 113.9375 C-114.47713882 119.99767161 -127.8476409 121.31040051 -140.60546875 118.08984375 C-143.2746195 116.9190315 -145.58826742 115.63083169 -148 114 C-149.09634766 113.33097656 -149.09634766 113.33097656 -150.21484375 112.6484375 C-156.84510973 108.22826018 -161.59577545 101.59867301 -164 94 C-164.265625 90.40625 -164.265625 90.40625 -164.25 86.5 C-164.25515625 85.2109375 -164.2603125 83.921875 -164.265625 82.59375 C-164.01515259 79.20500561 -163.3017946 77.07985551 -162 74 C-162.20077768 71.92529733 -162.41208539 69.85075125 -162.69140625 67.78515625 C-163.94300761 56.48905789 -163.93038344 46.70532148 -157.046875 37.34375 C-149.43008284 28.28882226 -141.74456661 24.15333918 -130 23 C-118.64024432 22.2532748 -109.75577746 24.12638584 -99.82104492 29.69946289 C-96.5347732 31.52505146 -96.5347732 31.52505146 -92.87109375 31.85546875 C-90.67827456 30.85290632 -88.55628495 29.77689297 -86.4375 28.625 C-73.50169481 22.13829536 -59.42899541 20.68495547 -45.5625 25 C-44.53253906 25.37125 -43.50257812 25.7425 -42.44140625 26.125 C-40.11845626 27.11246192 -40.11845626 27.11246192 -38 27 C-38.061875 25.741875 -38.12375 24.48375 -38.1875 23.1875 C-38.17678204 16.40303391 -36.76741911 9.86443787 -33.1875 4.0625 C-23.92727454 -4.66856972 -11.11145526 -6.87851992 0 0 Z " fill="#020201" transform="translate(1211,158)"/>
<path d="M0 0 C1.44197754 0.00241699 1.44197754 0.00241699 2.91308594 0.00488281 C11.26724038 0.14723559 18.46767006 1.58133453 26.375 4.375 C27.30570313 4.67535156 28.23640625 4.97570312 29.1953125 5.28515625 C39.0194876 8.75516305 45.32457504 14.91670204 51.53125 23.09375 C53.12196347 25.06192091 54.55971649 26.48769408 56.5625 28 C66.59170304 36.46910479 70.19044801 51.80558718 71.375 64.375 C72.37045464 78.52467664 70.23444649 96.00299221 61.63671875 107.75 C60.45551474 109.08549404 59.24570353 110.39643503 58.00390625 111.67578125 C55.76552881 114.0107793 54.1382875 116.67129251 52.375 119.375 C49.00978762 123.77292306 45.63668853 126.96080898 40.9375 129.9375 C39.84566406 130.66066406 38.75382813 131.38382813 37.62890625 132.12890625 C26.23165275 138.52588007 15.78664833 140.2156652 2.96240234 140.08178711 C0.50805307 140.06256308 -1.94060337 140.10209491 -4.39453125 140.14648438 C-21.42977714 140.23504103 -34.63571427 135.27689883 -46.8425293 123.27612305 C-49.12837007 121.00015304 -51.37460219 118.68594664 -53.625 116.375 C-54.50800781 115.50617188 -55.39101563 114.63734375 -56.30078125 113.7421875 C-67.9497162 101.87789409 -69.10949632 86.43309945 -69.1875 70.6875 C-69.19617096 69.98134552 -69.20484192 69.27519104 -69.21377563 68.54763794 C-69.36805425 50.41030745 -63.91993604 34.85007824 -51.625 21.375 C-37.39016068 7.16279159 -20.17840223 -0.03553787 0 0 Z " fill="#040402" transform="translate(970.625,153.625)"/>
<path d="M0 0 C35.97 0 71.94 0 109 0 C109 29.7 109 59.4 109 90 C73.03 90 37.06 90 0 90 C0 60.3 0 30.6 0 0 Z " fill="#028100" transform="translate(568,488)"/>
<path d="M0 0 C35.64 0 71.28 0 108 0 C108 29.37 108 58.74 108 89 C72.36 89 36.72 89 0 89 C0 59.63 0 30.26 0 0 Z " fill="#008000" transform="translate(1210,525)"/>
<path d="M0 0 C0.495 0.99 0.495 0.99 1 2 C3.50845281 3.30067924 6.07209331 4.43503443 8.65234375 5.5859375 C11.24005973 7.14459504 11.96221479 8.21280544 13 11 C11.20966193 12.31431172 9.41768797 13.6263953 7.625 14.9375 C6.62726563 15.66839844 5.62953125 16.39929688 4.6015625 17.15234375 C0.71492633 19.91267244 -1.83386658 20.50737885 -6.55078125 20.4921875 C-10.38883622 19.72090373 -12.49294723 17.46001603 -15.17578125 14.7265625 C-19.70522157 10.43959757 -24.0128574 10.64652962 -30.015625 10.734375 C-33.96442117 11.08583853 -36.51764692 12.14768453 -40 14 C-40.99 14.33 -41.98 14.66 -43 15 C-43.495 16.485 -43.495 16.485 -44 18 C-45.84765625 19.82421875 -45.84765625 19.82421875 -48.0625 21.6875 C-49.16271484 22.62142578 -49.16271484 22.62142578 -50.28515625 23.57421875 C-50.85105469 24.04472656 -51.41695312 24.51523438 -52 25 C-51.42655063 27.86724686 -51.1385485 28.8614515 -49 31 C-45.31448687 30.95627357 -44.1215163 30.12132702 -41.4921875 27.49609375 C-40.61896086 26.477274 -39.7465964 25.45771477 -38.875 24.4375 C-35.36216328 20.64875772 -32.61413647 18.17393577 -27.25 17.9375 C-21.60957613 18.53122883 -18.86624308 21.13375692 -15 25 C-10.09488125 28.19899049 -5.71866404 28.98976878 0 28 C4.7330344 26.2251121 8.82841637 24.03210939 12.625 20.6875 C15.52170559 18.62931445 17.46958243 18.04191033 21.0078125 18.2421875 C24.68858389 19.64232407 26.01601207 22.67156578 27.74609375 26.046875 C34.60494716 42.2004363 33.00109295 58.61249007 28 75 C27.34 75 26.68 75 26 75 C25.505 76.485 25.505 76.485 25 78 C22.324495 77.464899 20.34788325 76.67394163 17.875 75.4375 C13.34181103 73.46824371 8.86134566 73.24899477 4 74 C0.79787307 75.80132223 0.79787307 75.80132223 -2 78 C-4.31727064 78.85894757 -6.59040645 79.42169755 -9 80 C-9 80.66 -9 81.32 -9 82 C-13.69961522 82.79804787 -15.86171661 82.77947667 -19.875 80.03125 C-21.80529017 78.40898486 -23.70902691 76.75448773 -25.58203125 75.06640625 C-30.21179511 71.10979061 -35.20936908 71.6723955 -41 72 C-48.42355208 73.27992277 -53.72828697 77.51596465 -58.8125 82.875 C-61 85 -61 85 -64 85 C-68 78.25 -68 78.25 -68 76 C-68.99 75.67 -69.98 75.34 -71 75 C-71.87890625 73.14453125 -71.87890625 73.14453125 -72.5625 70.8125 C-72.80742188 69.99910156 -73.05234375 69.18570313 -73.3046875 68.34765625 C-73.53414062 67.57292969 -73.76359375 66.79820312 -74 66 C-74.391875 64.9275 -74.78375 63.855 -75.1875 62.75 C-76.61465721 57.91962175 -76.61465721 57.91962175 -76 55 C-72.88656168 52.04622519 -70.03897041 50.69257827 -65.8125 50.3125 C-60.45932419 50.52118312 -56.7608954 53.27157985 -52.48046875 56.2734375 C-48.05265341 59.3554759 -45.40031484 60.26196216 -39.9375 60.1875 C-38.37322266 60.17783203 -38.37322266 60.17783203 -36.77734375 60.16796875 C-33.09584236 59.94531817 -31.46979276 59.4836102 -28.875 56.8125 C-24.26642393 52.09353887 -19.13758928 47.68575449 -12.3125 47.375 C-5.42791794 47.88984701 -1.64743781 52.35256219 3 57 C6.32918458 59.55542185 6.32918458 59.55542185 10.3125 59.6875 C10.869375 59.460625 11.42625 59.23375 12 59 C12.74792995 57.18437576 12.74792995 57.18437576 13 55 C10.45393425 50.54917078 6.5400333 47.27001665 2 45 C1.27941406 44.57589844 0.55882812 44.15179688 -0.18359375 43.71484375 C-6.18952893 40.35114526 -11.12159674 38.88942447 -18 40 C-21.25071961 41.20833582 -21.25071961 41.20833582 -24 43 C-24.94875 43.433125 -25.8975 43.86625 -26.875 44.3125 C-29.6146525 45.79191235 -31.47759 47.24798806 -33.8125 49.25 C-36.7873341 51.51223125 -38.67378353 52.45982391 -42.4375 52.25 C-46.94726332 51.40101174 -50.23481623 49.20449962 -53.859375 46.47265625 C-58.65808538 43.17135367 -62.53030768 42.76692164 -68.3125 42.875 C-69.56675781 42.89304688 -70.82101562 42.91109375 -72.11328125 42.9296875 C-73.54220703 42.96449219 -73.54220703 42.96449219 -75 43 C-76.41366921 32.9023628 -70.15194115 23.53463161 -64.3125 15.6875 C-57.21714691 7.35697906 -48.44710729 1.2378877 -38 -2 C-36.7625 -2.4125 -35.525 -2.825 -34.25 -3.25 C-22.73791672 -5.78265832 -10.98770283 -3.7869567 0 0 Z " fill="#F3F324" transform="translate(993,174)"/>
<path d="M0 0 C0.94875 0.598125 1.8975 1.19625 2.875 1.8125 C10.53269166 9.69541788 10 18.19560062 10 29 C-4.85 29 -19.7 29 -35 29 C-32.55066888 37.29205972 -32.55066888 37.29205972 -28 44 C-21.96917273 46.72572324 -15.06998178 46.82974015 -8.8125 44.875 C-5.47224433 43.56048874 -5.07870069 43.13840466 -3.1875 39.8125 C-1 37 -1 37 1.68359375 36.61328125 C4.47856862 36.62396268 7.21770154 36.74095842 10 37 C9.48204521 42.30903657 7.93765444 45.63548484 5 50 C2.75 51.4375 2.75 51.4375 1 52 C1 52.66 1 53.32 1 54 C-11.56319092 57.95246456 -21.90247136 60.1095928 -34.26953125 53.8515625 C-40.24134338 49.90080342 -43.00165472 44.34943707 -46 38 C-46.33 37.34 -46.66 36.68 -47 36 C-47.73835003 24.39216914 -47.56673665 14.33939818 -41.25 4.1875 C-29.90018703 -6.84704039 -13.47190855 -9.16727505 0 0 Z " fill="#EEEE28" transform="translate(1167,203)"/>
<path d="M0 0 C3.69272642 2.63686365 6.20323428 5.48290377 7.58203125 9.84375 C7.58203125 11.82375 7.58203125 13.80375 7.58203125 15.84375 C3.62203125 15.84375 -0.33796875 15.84375 -4.41796875 15.84375 C-4.85109375 14.709375 -5.28421875 13.575 -5.73046875 12.40625 C-6.28734375 11.230625 -6.84421875 10.055 -7.41796875 8.84375 C-10.84029847 7.70297343 -13.50470092 7.74559883 -17.10546875 7.78125 C-18.28496094 7.79027344 -19.46445313 7.79929688 -20.6796875 7.80859375 C-21.58332031 7.82019531 -22.48695312 7.83179688 -23.41796875 7.84375 C-23.66857065 9.25678238 -23.89258796 10.67454474 -24.10546875 12.09375 C-24.29689453 13.27710938 -24.29689453 13.27710938 -24.4921875 14.484375 C-24.56066337 16.87512585 -24.56066337 16.87512585 -23.48828125 19.01171875 C-20.29155784 21.84051739 -16.73003875 22.1710149 -12.60546875 22.90625 C-4.26576832 24.45514813 1.71116065 26.30192276 7.58203125 32.84375 C9.55965857 36.79900464 9.01066961 41.53355312 8.58203125 45.84375 C6.95597012 50.68658424 3.94495761 54.24455983 -0.41796875 56.84375 C-9.68358451 60.27217561 -18.51352311 61.21405074 -27.98046875 58.078125 C-32.5942997 55.74163369 -35.72861759 52.21131245 -38.41796875 47.84375 C-39.28367834 44.97697398 -39.41796875 42.87445593 -39.41796875 39.84375 C-35.45796875 39.84375 -31.49796875 39.84375 -27.41796875 39.84375 C-26.98484375 40.7925 -26.55171875 41.74125 -26.10546875 42.71875 C-24.62494674 46.04416937 -24.62494674 46.04416937 -21.41796875 47.84375 C-18.58131546 48.16181878 -18.58131546 48.16181878 -15.48046875 48.09375 C-13.92005859 48.10148437 -13.92005859 48.10148437 -12.328125 48.109375 C-9.43743666 47.84552694 -7.77123458 47.52387235 -5.41796875 45.84375 C-4.33463542 42.42708333 -4.33463542 42.42708333 -4.41796875 38.84375 C-6.47026004 35.60287302 -9.44034549 35.13350149 -13.02734375 34.3046875 C-13.73375 34.15257812 -14.44015625 34.00046875 -15.16796875 33.84375 C-23.92440994 31.91602601 -30.36401334 29.76255618 -36.41796875 22.84375 C-38.34050995 17.0761264 -38.43883087 10.96400209 -35.79296875 5.46875 C-25.59702041 -5.80045606 -13.26116125 -7.36924295 0 0 Z " fill="#EAEA28" transform="translate(1101.41796875,201.15625)"/>
<path d="M0 0 C4.24833424 1.38132255 7.13162139 3.96542145 10.31640625 7.03125 C13.19187948 9.25727101 15.11332595 9.55764019 18.703125 9.87890625 C19.52554688 9.96914063 20.34796875 10.059375 21.1953125 10.15234375 C27.80044267 10.43387389 31.5026407 8.84232384 36.703125 4.87890625 C40.39871328 2.41518073 43.41356699 2.30307064 47.703125 2.87890625 C50.703125 4.37890625 50.703125 4.37890625 52.703125 5.87890625 C51.10170751 10.04259171 48.22330451 13.20984996 44.703125 15.87890625 C41.328125 16.75390625 41.328125 16.75390625 38.703125 16.87890625 C38.703125 17.53890625 38.703125 18.19890625 38.703125 18.87890625 C30.03050345 24.08898439 23.20376304 25.78898098 13.140625 25.50390625 C11.99916016 25.51035156 10.85769531 25.51679688 9.68164062 25.5234375 C-0.9050048 25.39042425 -9.4060497 22.73025637 -17.93359375 16.44140625 C-19.296875 14.87890625 -19.296875 14.87890625 -19.296875 10.87890625 C-14.27086041 4.46271741 -8.54846965 -0.76936227 0 0 Z " fill="#F3F324" transform="translate(958.296875,253.12109375)"/>
<path d="M0 0 C3.96 0 7.92 0 12 0 C13.73067699 1.73067699 13.12756529 4.06488804 13.12939453 6.421875 C13.13254669 7.57977539 13.13569885 8.73767578 13.13894653 9.93066406 C13.1369223 11.19104492 13.13489807 12.45142578 13.1328125 13.75 C13.13376923 15.03358398 13.13472595 16.31716797 13.13571167 17.63964844 C13.13718831 20.36003824 13.13503519 23.08039525 13.13037109 25.80078125 C13.12467381 29.29484669 13.12795299 32.78883533 13.13394356 36.28289795 C13.13841754 39.60527153 13.13528885 42.92762423 13.1328125 46.25 C13.13483673 47.51038086 13.13686096 48.77076172 13.13894653 50.06933594 C13.13579437 51.22723633 13.13264221 52.38513672 13.12939453 53.578125 C13.12859894 54.60325195 13.12780334 55.62837891 13.12698364 56.68457031 C13 59 13 59 12 60 C8.04 60 4.08 60 0 60 C0 40.2 0 20.4 0 0 Z " fill="#E6E629" transform="translate(1191,199)"/>
<path d="M0 0 C6.1275 5.13 6.1275 5.13 7.6875 8.25 C7.6875 10.23 7.6875 12.21 7.6875 14.25 C-3.2025 14.25 -14.0925 14.25 -25.3125 14.25 C-24.1125 5.85 -24.1125 5.85 -21.3125 2.25 C-15.01006166 -2.27482753 -6.9872724 -3.69138919 0 0 Z " fill="#12120B" transform="translate(1157.3125,209.75)"/>
<path d="M0 0 C3.80484394 0.71340824 5.4511805 1.6388541 8 4.5625 C8.625 8 8.625 8 8 11.5625 C5.38431879 15.28786415 3.9396067 16.39765672 -0.5625 17.1875 C-4 16.5625 -4 16.5625 -6.4375 14.4375 C-8.29055839 11.02787255 -8.71588388 9.38054737 -8 5.5625 C-5.53959272 2.23371368 -4.10389613 0.76948052 0 0 Z " fill="#E2E22A" transform="translate(1197,169.4375)"/>
<path d="M0 0 C0 0.33 0 0.66 0 1 C-0.66386719 1.04898438 -1.32773438 1.09796875 -2.01171875 1.1484375 C-6.72068111 1.54715256 -10.65677658 2.02580754 -15 4 C-15.99 4 -16.98 4 -18 4 C-18.2475 4.5775 -18.495 5.155 -18.75 5.75 C-20.16599656 8.29879381 -21.94723215 9.94723215 -24 12 C-24.97771193 14.9331358 -25.13419011 16.88178994 -25.125 19.9375 C-25.12757812 20.79214844 -25.13015625 21.64679688 -25.1328125 22.52734375 C-25.00930254 24.82680852 -24.64420687 26.79640348 -24 29 C-27 27 -27 27 -28 24 C-28.49914836 18.7875819 -28.67229146 14.39629765 -26.375 9.625 C-18.19648111 0.58558439 -11.71198882 -0.34112589 0 0 Z " fill="#A9A934" transform="translate(1092,197)"/>
<path d="M0 0 C1.07021121 3.64022546 0.72344899 4.64884919 -1 8 C-1.38749213 10.32495277 -1.72982839 12.65851268 -2 15 C-0.69675781 14.96519531 -0.69675781 14.96519531 0.6328125 14.9296875 C1.78523437 14.91164062 2.93765625 14.89359375 4.125 14.875 C5.83042969 14.84019531 5.83042969 14.84019531 7.5703125 14.8046875 C11.05757767 15.00327891 13.7553862 15.7475199 17 17 C17 17.66 17 18.32 17 19 C16.13375 18.67 15.2675 18.34 14.375 18 C8.4370324 16.25426211 2.12215931 16.8471583 -4 17 C-4.48736475 10.29873464 -3.07708804 5.93438408 0 0 Z " fill="#969636" transform="translate(922,200)"/>
<path d="M0 0 C0.86625 0.639375 1.7325 1.27875 2.625 1.9375 C8.59115454 5.58348333 15.15671393 5.47615097 22 5 C25.4614054 4.12899451 25.4614054 4.12899451 28 3 C26.71183448 5.57633104 25.64121032 5.93425868 23 7 C19.821437 7.40593522 16.63945246 7.32451032 13.4375 7.3125 C12.57447266 7.32861328 11.71144531 7.34472656 10.82226562 7.36132812 C9.99275391 7.36197266 9.16324219 7.36261719 8.30859375 7.36328125 C7.17635376 7.36775269 7.17635376 7.36775269 6.02124023 7.37231445 C3.46096405 6.90070904 2.59358297 6.01939372 1 4 C0.3125 1.8125 0.3125 1.8125 0 0 Z " fill="#969630" transform="translate(965,258)"/>
<path d="M0 0 C0.66 0.33 1.32 0.66 2 1 C0.56665422 2.62866544 -0.87182979 4.25280994 -2.3125 5.875 C-3.11300781 6.77992188 -3.91351562 7.68484375 -4.73828125 8.6171875 C-7 11 -7 11 -10 13 C-10.72382467 15.05925139 -10.72382467 15.05925139 -11 17 C-11.99 17 -12.98 17 -14 17 C-11.75803675 9.60152129 -5.8938129 4.630853 0 0 Z " fill="#BBBB35" transform="translate(939,180)"/>
<path d="M0 0 C-4.45192788 3.53083935 -7.56210591 4.12412157 -13.19921875 4.09765625 C-14.40771484 4.09443359 -15.61621094 4.09121094 -16.86132812 4.08789062 C-18.7552832 4.07532227 -18.7552832 4.07532227 -20.6875 4.0625 C-22.59885742 4.05573242 -22.59885742 4.05573242 -24.54882812 4.04882812 C-27.69926564 4.03702873 -30.84960949 4.02056597 -34 4 C-34 3.67 -34 3.34 -34 3 C-33.33468262 2.98018066 -32.66936523 2.96036133 -31.98388672 2.93994141 C-28.94721732 2.84423582 -25.91119322 2.73474192 -22.875 2.625 C-21.30492187 2.57859375 -21.30492187 2.57859375 -19.703125 2.53125 C-12.95896994 2.27514285 -6.57496179 -0.38676246 0 0 Z " fill="#A4A439" transform="translate(992,274)"/>
<path d="M0 0 C0.66 0.33 1.32 0.66 2 1 C0.68 1.33 -0.64 1.66 -2 2 C-2 2.66 -2 3.32 -2 4 C-4.91086669 4.9702889 -6.90223685 5.16467847 -9.9375 5.1875 C-10.79214844 5.20167969 -11.64679688 5.21585938 -12.52734375 5.23046875 C-15.13909303 4.98703556 -16.75500652 4.3178268 -19 3 C-19 2.67 -19 2.34 -19 2 C-18.13117188 2.02320313 -17.26234375 2.04640625 -16.3671875 2.0703125 C-14.63855469 2.09738281 -14.63855469 2.09738281 -12.875 2.125 C-11.73804688 2.14820313 -10.60109375 2.17140625 -9.4296875 2.1953125 C-5.94267285 1.99673536 -3.27943657 1.13116798 0 0 Z " fill="#B8B837" transform="translate(1160,247)"/>
<path d="M0 0 C-0.32742188 0.53109375 -0.65484375 1.0621875 -0.9921875 1.609375 C-2.2642989 4.62694157 -2.1959363 6.98693023 -2.125 10.25 C-2.10695313 11.32765625 -2.08890625 12.4053125 -2.0703125 13.515625 C-2.04710937 14.33546875 -2.02390625 15.1553125 -2 16 C-4.93802312 13.57951483 -5.53043378 11.74723977 -5.9375 8 C-6.04964844 7.13375 -6.16179688 6.2675 -6.27734375 5.375 C-6 3 -6 3 -4.12890625 1.1875 C-2 0 -2 0 0 0 Z " fill="#ACAC33" transform="translate(923,226)"/>
<path d="M0 0 C2.74021804 0.53036478 4.72318011 1.71426009 6.9375 3.375 C6.6075 4.365 6.2775 5.355 5.9375 6.375 C5.6075 5.385 5.2775 4.395 4.9375 3.375 C-0.80092251 3.17086639 -5.66789047 3.10358546 -11.0625 5.375 C-7.59677608 1.0428451 -5.39165219 -0.3267668 0 0 Z " fill="#9F9F35" transform="translate(1004.0625,255.625)"/>
<path d="M0 0 C0.33 1.32 0.66 2.64 1 4 C0.34 3.67 -0.32 3.34 -1 3 C-3.11718773 3.09926746 -3.11718773 3.09926746 -5.4375 3.4375 C-8.01609988 3.77310031 -10.39165072 4 -13 4 C-8.62340682 -0.37659318 -5.88808394 -0.39919213 0 0 Z " fill="#A6A638" transform="translate(1016,193)"/>
<path d="M0 0 C0.55171875 0.22558594 1.1034375 0.45117188 1.671875 0.68359375 C0.09840324 1.71956275 -1.48734046 2.73691107 -3.078125 3.74609375 C-3.95984375 4.31457031 -4.8415625 4.88304687 -5.75 5.46875 C-8.328125 6.68359375 -8.328125 6.68359375 -10.65625 6.3671875 C-11.48382812 6.02880859 -11.48382812 6.02880859 -12.328125 5.68359375 C-10.75465324 4.64762475 -9.16890954 3.63027643 -7.578125 2.62109375 C-6.69640625 2.05261719 -5.8146875 1.48414063 -4.90625 0.8984375 C-2.328125 -0.31640625 -2.328125 -0.31640625 0 0 Z " fill="#A1A135" transform="translate(953.328125,173.31640625)"/>
<path d="M0 0 C0.66 0.33 1.32 0.66 2 1 C0.88121617 2.17262904 -0.24523051 3.33795138 -1.375 4.5 C-2.00148438 5.1496875 -2.62796875 5.799375 -3.2734375 6.46875 C-5 8 -5 8 -7 8 C-6.875 6.25 -6.875 6.25 -6 4 C-2.9375 1.75 -2.9375 1.75 0 0 Z " fill="#3E3E1D" transform="translate(1141,209)"/>
<path d="M0 0 C2.61940964 2.50552226 3.95696227 3.85347491 4.09765625 7.6015625 C4.08605469 8.59929687 4.07445312 9.59703125 4.0625 10.625 C4.05347656 11.62789062 4.04445313 12.63078125 4.03515625 13.6640625 C4.02355469 14.43492187 4.01195312 15.20578125 4 16 C3.67 16 3.34 16 3 16 C2.92652344 15.07767578 2.92652344 15.07767578 2.8515625 14.13671875 C2.77679687 13.32847656 2.70203125 12.52023438 2.625 11.6875 C2.55539062 10.88699219 2.48578125 10.08648437 2.4140625 9.26171875 C2.10435574 6.72775559 2.10435574 6.72775559 0 4 C0 2.68 0 1.36 0 0 Z " fill="#8D8D3C" transform="translate(1106,231)"/>
<path d="M0 0 C-3.42346555 3.14958831 -6.44262737 3.56179109 -11 4 C-11 3.34 -11 2.68 -11 2 C-7.17679443 0.57741188 -4.08718695 -0.24042276 0 0 Z " fill="#8E8E3D" transform="translate(992,274)"/>
<path d="M0 0 C0.66 0.33 1.32 0.66 2 1 C1.21718695 2.33855056 0.42348123 3.67073644 -0.375 5 C-0.81585937 5.7425 -1.25671875 6.485 -1.7109375 7.25 C-2.34902344 8.11625 -2.34902344 8.11625 -3 9 C-3.66 9 -4.32 9 -5 9 C-3.90931332 5.22454612 -3.0916909 2.52956528 0 0 Z " fill="#9A9A37" transform="translate(1128,205)"/>
<path d="M0 0 C3.2542015 2.83430453 4.5206753 4.68607774 5 9 C2.5 6.75 2.5 6.75 0 4 C0 2.68 0 1.36 0 0 Z " fill="#ABAB37" transform="translate(1170,206)"/>
</svg>
